<svg xmlns="http://www.w3.org/2000/svg" width="34" height="34" viewBox="0 0 34 34" fill="none">
  <path d="M25.925 20.612c-1.275-.725-2.612-.15-3.3.425-.55.462-1.1.85-1.65.85-.412 0-.962-.25-1.65-.75-1.65-1.2-2.95-2.5-3.85-3.85-.55-.825-.725-1.512-.65-1.925.1-.55.5-1.1.962-1.65.575-.688 1.15-2.025.425-3.3C15.6 9.2 14.5 7.083 13.1 7.083c-.55 0-1.1.138-1.65.412-2.062 1.1-3.3 3.438-3.3 6.188 0 3.437 1.925 7.15 5.087 10.313C16.4 26.158 20.112 28.083 23.55 28.083c2.75 0 5.087-1.238 6.187-3.3.275-.55.413-1.1.413-1.65 0-1.4-2.113-2.5-4.225-3.521Z" fill="#A685FA"/>
</svg>
